<?xml version="1.0" encoding="UTF-8" standalone="no"?>
<svg
   width="150"
   height="100"
   viewBox="0 0 150 100"
   version="1.1"
   xmlns="http://www.w3.org/2000/svg">
  <!-- Meja Kasir -->
  <rect
     style="fill:#4d4d4d;stroke:#000000;stroke-width:2"
     width="140"
     height="60"
     x="5"
     y="30" />
  <!-- Bagian atas meja -->
  <rect
     style="fill:#808080;stroke:#000000;stroke-width:1"
     width="140"
     height="10"
     x="5"
     y="20" />
  <!-- Monitor Kasir -->
  <rect
     style="fill:#000000;stroke:#333333;stroke-width:1"
     width="30"
     height="25"
     x="20"
     y="5" />
  <rect
     style="fill:#ffffff;stroke:#333333;stroke-width:1"
     width="25"
     height="20"
     x="22.5"
     y="7.5" />
  <!-- Keyboard -->
  <rect
     style="fill:#333333;stroke:#000000;stroke-width:1"
     width="40"
     height="15"
     x="60"
     y="15" />
  <!-- Mesin Kasir -->
  <rect
     style="fill:#222222;stroke:#000000;stroke-width:1"
     width="25"
     height="20"
     x="110"
     y="10" />
  <!-- Conveyor Belt -->
  <rect
     style="fill:#303030;stroke:#000000;stroke-width:1"
     width="100"
     height="10"
     x="40"
     y="40" />
  <rect
     style="fill:#303030;stroke:#000000;stroke-width:1"
     width="100"
     height="10"
     x="40"
     y="60" />
  <!-- Garis-garis conveyor -->
  <rect
     style="fill:#505050;stroke:none"
     width="5"
     height="10"
     x="45"
     y="40" />
  <rect
     style="fill:#505050;stroke:none"
     width="5"
     height="10"
     x="60"
     y="40" />
  <rect
     style="fill:#505050;stroke:none"
     width="5"
     height="10"
     x="75"
     y="40" />
  <rect
     style="fill:#505050;stroke:none"
     width="5"
     height="10"
     x="90"
     y="40" />
  <rect
     style="fill:#505050;stroke:none"
     width="5"
     height="10"
     x="105"
     y="40" />
  <rect
     style="fill:#505050;stroke:none"
     width="5"
     height="10"
     x="120"
     y="40" />
  <rect
     style="fill:#505050;stroke:none"
     width="5"
     height="10"
     x="45"
     y="60" />
  <rect
     style="fill:#505050;stroke:none"
     width="5"
     height="10"
     x="60"
     y="60" />
  <rect
     style="fill:#505050;stroke:none"
     width="5"
     height="10"
     x="75"
     y="60" />
  <rect
     style="fill:#505050;stroke:none"
     width="5"
     height="10"
     x="90"
     y="60" />
  <rect
     style="fill:#505050;stroke:none"
     width="5"
     height="10"
     x="105"
     y="60" />
  <rect
     style="fill:#505050;stroke:none"
     width="5"
     height="10"
     x="120"
     y="60" />
  <!-- Kaki Meja -->
  <rect
     style="fill:#333333;stroke:#000000;stroke-width:1"
     width="10"
     height="10"
     x="15"
     y="90" />
  <rect
     style="fill:#333333;stroke:#000000;stroke-width:1"
     width="10"
     height="10"
     x="125"
     y="90" />
</svg>