<svg width="374" height="63" viewBox="0 0 374 63" fill="none" xmlns="http://www.w3.org/2000/svg">
<g filter="url(#filter0_d_138_62)">
<path d="M0.104688 57L3.94469 43.48V33.32L9.86469 30.92L21.0647 0.439999H45.1447L58.8247 36.28L64.9847 47.64V57H47.6247L43.6247 45.08H21.9447L18.5047 57H0.104688ZM27.2247 31.08H39.2247L33.9447 15.16H32.2647L27.2247 31.08ZM72.1891 57V13.24L70.5891 5.16L72.1891 0.36H100.989C105.309 0.36 109.016 1.05333 112.109 2.44C115.202 3.82666 117.576 6.06666 119.229 9.16C120.882 12.2 121.709 16.2267 121.709 21.24C121.709 25.88 120.936 29.6933 119.389 32.68C117.842 35.6667 115.576 37.9333 112.589 39.48L113.949 40.6L119.469 48.12L124.029 52.2V57H102.829L94.0291 42.36H89.7891V44.12L90.5891 52.12L89.7891 57H72.1891ZM89.7891 27.4H94.4291C96.2957 27.4 97.8957 27.32 99.2291 27.16C100.616 27 101.682 26.52 102.429 25.72C103.176 24.8667 103.549 23.5067 103.549 21.64C103.549 19.6667 103.149 18.2533 102.349 17.4C101.549 16.5467 100.429 16.04 98.9891 15.88C97.6024 15.6667 95.9757 15.56 94.1091 15.56H88.9891L89.7891 27.4ZM145.732 57.8C144.185 57.8 142.718 57.72 141.332 57.56C139.998 57.4 138.772 57.2133 137.652 57L125.652 51.4L130.452 37.64L146.852 42.76C148.932 42.76 150.425 42.0667 151.332 40.68C152.292 39.24 152.772 36.7067 152.772 33.08V13.16L151.092 5.16L151.892 0.36H170.372L170.452 35.64C170.452 42.7867 168.318 48.28 164.052 52.12C159.785 55.9067 153.678 57.8 145.732 57.8ZM206.343 57.8C197.01 57.8 190.29 55.9333 186.183 52.2C182.077 48.4133 180.023 42.36 180.023 34.04V13.24L180.103 5.16L180.023 0.36H197.943V30.04C197.943 32.4933 198.13 34.68 198.503 36.6C198.877 38.4667 199.677 39.9333 200.903 41C202.13 42.0667 203.997 42.6 206.503 42.6C209.063 42.6 210.957 42.12 212.183 41.16C213.41 40.2 214.21 38.7867 214.583 36.92C214.957 35.0533 215.143 32.76 215.143 30.04V0.36H232.663V34.04C232.663 39.48 231.783 43.96 230.023 47.48C228.263 50.9467 225.463 53.5333 221.623 55.24C217.783 56.9467 212.69 57.8 206.343 57.8ZM243.048 57V13.24L241.448 5.24L243.048 0.439999H259.128L275.288 20.6L279.128 27.24H279.928V0.439999H298.408V5.24L297.608 13.24V57H281.688L261.608 29.64H260.808V34.44L261.608 57H243.048ZM304.011 57L307.851 43.48V33.32L313.771 30.92L324.971 0.439999H349.051L362.731 36.28L368.891 47.64V57H351.531L347.531 45.08H325.851L322.411 57H304.011ZM331.131 31.08H343.131L337.851 15.16H336.171L331.131 31.08Z" fill="#EDF4FC"/>
</g>
<defs>
<filter id="filter0_d_138_62" x="0.104691" y="0.360001" width="373.786" height="62.44" filterUnits="userSpaceOnUse" color-interpolation-filters="sRGB">
<feFlood flood-opacity="0" result="BackgroundImageFix"/>
<feColorMatrix in="SourceAlpha" type="matrix" values="0 0 0 0 0 0 0 0 0 0 0 0 0 0 0 0 0 0 127 0" result="hardAlpha"/>
<feOffset dx="5" dy="5"/>
<feComposite in2="hardAlpha" operator="out"/>
<feColorMatrix type="matrix" values="0 0 0 0 0.584314 0 0 0 0 0.498039 0 0 0 0 0.156863 0 0 0 1 0"/>
<feBlend mode="normal" in2="BackgroundImageFix" result="effect1_dropShadow_138_62"/>
<feBlend mode="normal" in="SourceGraphic" in2="effect1_dropShadow_138_62" result="shape"/>
</filter>
</defs>
</svg>
