<svg width="17" height="16" viewBox="0 0 17 16" fill="none" xmlns="http://www.w3.org/2000/svg">
<path d="M6.43752 15.5L6.13752 13.1C5.97502 13.0375 5.8219 12.9625 5.67815 12.875C5.5344 12.7875 5.39377 12.6938 5.25627 12.5938L3.02502 13.5312L0.962524 9.96875L2.89377 8.50625C2.88127 8.41875 2.87502 8.33438 2.87502 8.25313V7.74688C2.87502 7.66563 2.88127 7.58125 2.89377 7.49375L0.962524 6.03125L3.02502 2.46875L5.25627 3.40625C5.39377 3.30625 5.53752 3.2125 5.68752 3.125C5.83752 3.0375 5.98752 2.9625 6.13752 2.9L6.43752 0.5H10.5625L10.8625 2.9C11.025 2.9625 11.1781 3.0375 11.3219 3.125C11.4656 3.2125 11.6063 3.30625 11.7438 3.40625L13.975 2.46875L16.0375 6.03125L14.1063 7.49375C14.1188 7.58125 14.125 7.66563 14.125 7.74688V8.25313C14.125 8.33438 14.1125 8.41875 14.0875 8.50625L16.0188 9.96875L13.9563 13.5312L11.7438 12.5938C11.6063 12.6938 11.4625 12.7875 11.3125 12.875C11.1625 12.9625 11.0125 13.0375 10.8625 13.1L10.5625 15.5H6.43752ZM8.53752 10.625C9.26252 10.625 9.88127 10.3688 10.3938 9.85625C10.9063 9.34375 11.1625 8.725 11.1625 8C11.1625 7.275 10.9063 6.65625 10.3938 6.14375C9.88127 5.63125 9.26252 5.375 8.53752 5.375C7.80002 5.375 7.17815 5.63125 6.6719 6.14375C6.16565 6.65625 5.91252 7.275 5.91252 8C5.91252 8.725 6.16565 9.34375 6.6719 9.85625C7.17815 10.3688 7.80002 10.625 8.53752 10.625Z" fill="#EDF4FC"/>
</svg>
